<?xml version="1.0" encoding="UTF-8"?>
<svg xmlns="http://www.w3.org/2000/svg" viewBox="0 0 380 520" width="380" height="520">
  <defs>
    <style>
      .box { fill: #e8f4f8; stroke: #2d7a9f; stroke-width: 1.5; rx: 6; }
      .arrow { stroke: #2d7a9f; stroke-width: 2; fill: none; marker-end: url(#arrowhead); }
      .text { font: 12px sans-serif; fill: #1a1a1a; text-anchor: middle; }
    </style>
    <marker id="arrowhead" markerWidth="10" markerHeight="7" refX="9" refY="3.5" orient="auto">
      <polygon points="0 0, 10 3.5, 0 7" fill="#2d7a9f"/>
    </marker>
  </defs>
  <!-- 1 -->
  <rect class="box" x="50" y="8" width="280" height="40"/>
  <text class="text" x="190" y="33">&#1047;&#1072;&#1087;&#1088;&#1086;&#1089; &#1082; LLM &#1089; &#1087;&#1088;&#1086;&#1084;&#1087;&#1090;&#1086;&#1084;</text>
  <path class="arrow" d="M 190 48 L 190 68"/>
  <!-- 2 -->
  <rect class="box" x="10" y="68" width="360" height="52"/>
  <text class="text" x="190" y="88">&#1054;&#1073;&#1088;&#1072;&#1073;&#1086;&#1090;&#1082;&#1072; &#1086;&#1090;&#1074;&#1077;&#1090;&#1072; &#1080; &#1080;&#1089;&#1082;&#1083;&#1102;&#1095;&#1077;&#1085;&#1080;&#1081;</text>
  <text class="text" x="190" y="105">&#1074;&#1085;&#1077;&#1096;&#1085;&#1077;&#1075;&#1086; &#1089;&#1077;&#1088;&#1074;&#1080;&#1089;&#1072;</text>
  <path class="arrow" d="M 190 120 L 190 140"/>
  <!-- 3 -->
  <rect class="box" x="95" y="140" width="190" height="40"/>
  <text class="text" x="190" y="165">&#1042;&#1072;&#1083;&#1080;&#1076;&#1072;&#1094;&#1080;&#1103; &#1086;&#1090;&#1074;&#1077;&#1090;&#1072;</text>
  <path class="arrow" d="M 190 180 L 190 200"/>
  <!-- 4 -->
  <rect class="box" x="130" y="200" width="120" height="40"/>
  <text class="text" x="190" y="225">&#1047;&#1072;&#1087;&#1088;&#1086;&#1089; &#1082; Kroki</text>
  <path class="arrow" d="M 190 240 L 190 260"/>
  <!-- 5 -->
  <rect class="box" x="140" y="260" width="100" height="40"/>
  <text class="text" x="190" y="285">&#1055;&#1086;&#1083;&#1091;&#1095;&#1077;&#1085;&#1080;&#1077; PNG</text>
  <path class="arrow" d="M 190 300 L 190 320"/>
  <!-- 6 -->
  <rect class="box" x="115" y="320" width="150" height="40"/>
  <text class="text" x="190" y="345">&#1057;&#1086;&#1093;&#1088;&#1072;&#1085;&#1077;&#1085;&#1080;&#1077; &#1092;&#1072;&#1081;&#1083;&#1072;</text>
  <path class="arrow" d="M 190 360 L 190 380"/>
  <!-- 7 -->
  <rect class="box" x="10" y="380" width="360" height="56"/>
  <text class="text" x="190" y="402">&#1057;&#1086;&#1086;&#1073;&#1097;&#1077;&#1085;&#1080;&#1077; &#1086;&#1073; &#1091;&#1089;&#1087;&#1077;&#1093;&#1077; &#1075;&#1077;&#1085;&#1077;&#1088;&#1072;&#1094;&#1080;&#1080;</text>
  <text class="text" x="190" y="420">&#1080; &#1075;&#1086;&#1090;&#1086;&#1074;&#1085;&#1086;&#1089;&#1090;&#1080; &#1082; &#1085;&#1086;&#1074;&#1086;&#1084;&#1091; &#1079;&#1072;&#1087;&#1088;&#1086;&#1089;&#1091;</text>
</svg>
